<svg xmlns="http://www.w3.org/2000/svg" width="880" height="570" viewBox="0 0 880 570">
<style>
.sans{font-family:ui-sans-serif,system-ui,-apple-system,BlinkMacSystemFont,"Segoe UI",Arial,sans-serif;fill:#f5f5f6}
.mono{font-family:ui-monospace,SFMono-Regular,Menlo,Monaco,Consolas,"Liberation Mono",monospace;fill:#f5f5f6}
.soft{fill:#b8bbc1}.faint{fill:#858991}.chrome{fill:#e3e5e8}
</style>

<rect width="880" height="570" fill="#080808"/>
<line x1="36" y1="34" x2="844" y2="34" stroke="#2c2d30"/>
<text x="36" y="23" class="mono faint" font-size="12">SELECTED WORK / PRACTICE</text>

<text x="36" y="110" class="sans" font-size="44" font-weight="800" fill="#92979f">01</text>
<line x1="105" y1="76" x2="105" y2="188" stroke="#2c2d30"/>
<text x="132" y="95" class="mono faint" font-size="11">PRIVATE R&amp;D</text>
<text x="132" y="135" class="sans" font-size="27" font-weight="800">THOTH BROWSER</text>
<text x="132" y="160" class="mono soft" font-size="11">Browser architecture / privacy engineering</text>
<text x="468" y="127" class="sans soft" font-size="13">Identity compartmentalization, routing boundaries,</text>
<text x="468" y="149" class="sans soft" font-size="13">fingerprint resistance and deterministic…</text>
<line x1="36" y1="202" x2="844" y2="202" stroke="#2c2d30"/>
<text x="36" y="260" class="sans" font-size="44" font-weight="800" fill="#92979f">02</text>
<line x1="105" y1="226" x2="105" y2="338" stroke="#2c2d30"/>
<text x="132" y="245" class="mono faint" font-size="11">INTERNAL</text>
<text x="132" y="285" class="sans" font-size="27" font-weight="800">CERTIFICATION SYSTEMS</text>
<text x="132" y="310" class="mono soft" font-size="11">Verification / release engineering</text>
<text x="468" y="277" class="sans soft" font-size="13">Reproducible gates, evidence chains, failure closure</text>
<text x="468" y="299" class="sans soft" font-size="13">and machine-readable GO / NO-GO decisions.</text>
<line x1="36" y1="352" x2="844" y2="352" stroke="#2c2d30"/>
<text x="36" y="410" class="sans" font-size="44" font-weight="800" fill="#92979f">03</text>
<line x1="105" y1="376" x2="105" y2="488" stroke="#2c2d30"/>
<text x="132" y="395" class="mono faint" font-size="11">ONGOING</text>
<text x="132" y="435" class="sans" font-size="27" font-weight="800">SECURITY ARCHITECTURE</text>
<text x="132" y="460" class="mono soft" font-size="11">Isolation / authorization / automation</text>
<text x="468" y="427" class="sans soft" font-size="13">Compartmentalized systems designed around explicit</text>
<text x="468" y="449" class="sans soft" font-size="13">trust boundaries, least privilege and low operator…</text>
<line x1="36" y1="502" x2="844" y2="502" stroke="#2c2d30"/>
</svg>