<svg xmlns="http://www.w3.org/2000/svg" width="880" height="270" viewBox="0 0 880 270">
<style>
text{font-family:ui-monospace,SFMono-Regular,Menlo,Monaco,Consolas,"Liberation Mono",monospace}
.fg{fill:#e6edf3}.muted{fill:#7d8590}.accent{fill:#58a6ff}.good{fill:#3fb950}
</style>
<rect x="1" y="1" width="878" height="268" rx="12" fill="#0d1117" stroke="#30363d"/>
<text x="34" y="64" class="fg" font-size="44" font-weight="700">10</text><text x="34" y="86" class="muted" font-size="11">CONTRIBUTIONS // LAST YEAR</text>
<text x="822" y="51" text-anchor="end" class="fg" font-size="18" font-weight="700">1</text><text x="822" y="69" text-anchor="end" class="muted" font-size="10">ACTIVE DAYS</text>
<text x="822" y="103" text-anchor="end" class="fg" font-size="18" font-weight="700">10</text><text x="822" y="121" text-anchor="end" class="muted" font-size="10">BEST WEEK</text>
<polyline points="40.0,220.0 55.4,220.0 70.8,220.0 86.2,220.0 101.5,220.0 116.9,220.0 132.3,220.0 147.7,220.0 163.1,220.0 178.5,220.0 193.8,220.0 209.2,220.0 224.6,220.0 240.0,220.0 255.4,220.0 270.8,220.0 286.2,220.0 301.5,220.0 316.9,220.0 332.3,220.0 347.7,220.0 363.1,220.0 378.5,220.0 393.8,220.0 409.2,220.0 424.6,220.0 440.0,220.0 455.4,220.0 470.8,220.0 486.2,220.0 501.5,220.0 516.9,220.0 532.3,220.0 547.7,220.0 563.1,220.0 578.5,220.0 593.8,220.0 609.2,220.0 624.6,220.0 640.0,220.0 655.4,220.0 670.8,220.0 686.2,220.0 701.5,220.0 716.9,220.0 732.3,220.0 747.7,220.0 763.1,220.0 778.5,220.0 793.8,220.0 809.2,220.0 824.6,220.0 840.0,142.0" fill="none" stroke="#79c0ff" stroke-width="2.2" stroke-linecap="round" stroke-linejoin="round" stroke-dasharray="1100" stroke-dashoffset="0"><animate attributeName="stroke-dashoffset" from="1100" to="0" dur="1.8s" begin=".25s" fill="freeze"/></polyline><line x1="40" y1="235" x2="840" y2="235" stroke="#30363d"/><circle cx="840.0" cy="142.0" r="4" fill="#e6edf3"><animate attributeName="r" values="3;5;3" dur="1.8s" repeatCount="indefinite"/></circle>
</svg>