<svg xmlns="http://www.w3.org/2000/svg" width="880" height="270" viewBox="0 0 880 270">
<style>
text{font-family:ui-monospace,SFMono-Regular,Menlo,Monaco,Consolas,"Liberation Mono",monospace}
.fg{fill:#edf2f8}.muted{fill:#7d8796}.accent{fill:#6aa8ff}.good{fill:#3fb950}
.small{font-size:10px} .tiny{font-size:8px} .label{font-size:9px;letter-spacing:.18em}

</style>

<rect x="1" y="1" width="878" height="270" rx="14" fill="#0b0f16" stroke="#2b3340"/>
<text x="34" y="64" class="fg" font-size="44" font-weight="700">449</text>
<text x="34" y="86" class="muted" font-size="11">CONTRIBUTIONS // LAST YEAR</text>
<text x="822" y="51" text-anchor="end" class="fg" font-size="18" font-weight="700">84</text><text x="822" y="69" text-anchor="end" class="muted" font-size="10">ACTIVE DAYS</text>
<text x="822" y="103" text-anchor="end" class="fg" font-size="18" font-weight="700">18</text><text x="822" y="121" text-anchor="end" class="muted" font-size="10">BEST WEEK</text>
<polyline points="40.0,194.0 55.4,202.7 70.8,142.0 86.2,176.7 101.5,198.3 116.9,185.3 132.3,189.7 147.7,163.7 163.1,211.3 178.5,185.3 193.8,159.3 209.2,176.7 224.6,185.3 240.0,198.3 255.4,172.3 270.8,181.0 286.2,211.3 301.5,159.3 316.9,185.3 332.3,159.3 347.7,202.7 363.1,181.0 378.5,150.7 393.8,220.0 409.2,194.0 424.6,176.7 440.0,168.0 455.4,172.3 470.8,207.0 486.2,181.0 501.5,150.7 516.9,202.7 532.3,194.0 547.7,194.0 563.1,168.0 578.5,172.3 593.8,189.7 609.2,168.0 624.6,163.7 640.0,220.0 655.4,194.0 670.8,176.7 686.2,142.0 701.5,198.3 716.9,207.0 732.3,168.0 747.7,163.7 763.1,211.3 778.5,185.3 793.8,194.0 809.2,142.0 824.6,198.3 840.0,220.0" fill="none" stroke="#8fd3ff" stroke-width="2.2" stroke-linecap="round" stroke-linejoin="round" stroke-dasharray="1200" stroke-dashoffset="1200"><animate attributeName="stroke-dashoffset" from="1200" to="0" dur="1.95s" begin=".15s" fill="freeze"/></polyline>
<line x1="40" y1="235" x2="840" y2="235" stroke="#2b3340"/>
<circle cx="840.0" cy="220.0" r="4" fill="#edf2f8"><animate attributeName="r" values="3;5.1;3" dur="1.9s" repeatCount="indefinite"/></circle>
</svg>