<svg xmlns="http://www.w3.org/2000/svg" width="880" height="160" viewBox="0 0 880 160">
<style>
text{font-family:ui-monospace,SFMono-Regular,Menlo,Monaco,Consolas,"Liberation Mono",monospace}
.fg{fill:#e6edf3}.muted{fill:#7d8590}.accent{fill:#58a6ff}.good{fill:#3fb950}
</style>
<rect x="1" y="1" width="878" height="158" rx="12" fill="#0d1117" stroke="#30363d"/>
<g opacity="1"><animate attributeName="opacity" from="0" to="1" dur=".35s" begin="0.00s" fill="freeze"/><rect x="28" y="23" width="82" height="34" rx="6" fill="#111820" stroke="#30363d"/><text x="42" y="45" class="fg" font-size="11">PYTHON</text><rect x="33" y="54" width="0" height="1.5" fill="#58a6ff"><animate attributeName="width" from="0" to="72" dur=".7s" begin="0.10s" fill="freeze"/></rect></g>
<g opacity="1"><animate attributeName="opacity" from="0" to="1" dur=".35s" begin="0.07s" fill="freeze"/><rect x="122" y="23" width="118" height="34" rx="6" fill="#111820" stroke="#30363d"/><text x="136" y="45" class="fg" font-size="11">JAVASCRIPT</text><rect x="127" y="54" width="0" height="1.5" fill="#58a6ff"><animate attributeName="width" from="0" to="108" dur=".7s" begin="0.17s" fill="freeze"/></rect></g>
<g opacity="1"><animate attributeName="opacity" from="0" to="1" dur=".35s" begin="0.14s" fill="freeze"/><rect x="252" y="23" width="76" height="34" rx="6" fill="#111820" stroke="#30363d"/><text x="266" y="45" class="fg" font-size="11">C++</text><rect x="257" y="54" width="0" height="1.5" fill="#58a6ff"><animate attributeName="width" from="0" to="66" dur=".7s" begin="0.24s" fill="freeze"/></rect></g>
<g opacity="1"><animate attributeName="opacity" from="0" to="1" dur=".35s" begin="0.21s" fill="freeze"/><rect x="340" y="23" width="76" height="34" rx="6" fill="#111820" stroke="#30363d"/><text x="354" y="45" class="fg" font-size="11">GECKO</text><rect x="345" y="54" width="0" height="1.5" fill="#58a6ff"><animate attributeName="width" from="0" to="66" dur=".7s" begin="0.31s" fill="freeze"/></rect></g>
<g opacity="1"><animate attributeName="opacity" from="0" to="1" dur=".35s" begin="0.28s" fill="freeze"/><rect x="428" y="23" width="118" height="34" rx="6" fill="#111820" stroke="#30363d"/><text x="442" y="45" class="fg" font-size="11">POWERSHELL</text><rect x="433" y="54" width="0" height="1.5" fill="#58a6ff"><animate attributeName="width" from="0" to="108" dur=".7s" begin="0.38s" fill="freeze"/></rect></g>
<g opacity="1"><animate attributeName="opacity" from="0" to="1" dur=".35s" begin="0.35s" fill="freeze"/><rect x="558" y="23" width="118" height="34" rx="6" fill="#111820" stroke="#30363d"/><text x="572" y="45" class="fg" font-size="11">POSTGRESQL</text><rect x="563" y="54" width="0" height="1.5" fill="#58a6ff"><animate attributeName="width" from="0" to="108" dur=".7s" begin="0.45s" fill="freeze"/></rect></g>
<g opacity="1"><animate attributeName="opacity" from="0" to="1" dur=".35s" begin="0.42s" fill="freeze"/><rect x="688" y="23" width="82" height="34" rx="6" fill="#111820" stroke="#30363d"/><text x="702" y="45" class="fg" font-size="11">DOCKER</text><rect x="693" y="54" width="0" height="1.5" fill="#58a6ff"><animate attributeName="width" from="0" to="72" dur=".7s" begin="0.52s" fill="freeze"/></rect></g>
<g opacity="1"><animate attributeName="opacity" from="0" to="1" dur=".35s" begin="0.49s" fill="freeze"/><rect x="28" y="75" width="76" height="34" rx="6" fill="#111820" stroke="#30363d"/><text x="42" y="97" class="fg" font-size="11">GIT</text><rect x="33" y="106" width="0" height="1.5" fill="#58a6ff"><animate attributeName="width" from="0" to="66" dur=".7s" begin="0.59s" fill="freeze"/></rect></g>
<g opacity="1"><animate attributeName="opacity" from="0" to="1" dur=".35s" begin="0.56s" fill="freeze"/><rect x="116" y="75" width="76" height="34" rx="6" fill="#111820" stroke="#30363d"/><text x="130" y="97" class="fg" font-size="11">LINUX</text><rect x="121" y="106" width="0" height="1.5" fill="#58a6ff"><animate attributeName="width" from="0" to="66" dur=".7s" begin="0.66s" fill="freeze"/></rect></g>
<g opacity="1"><animate attributeName="opacity" from="0" to="1" dur=".35s" begin="0.63s" fill="freeze"/><rect x="204" y="75" width="91" height="34" rx="6" fill="#111820" stroke="#30363d"/><text x="218" y="97" class="fg" font-size="11">WINDOWS</text><rect x="209" y="106" width="0" height="1.5" fill="#58a6ff"><animate attributeName="width" from="0" to="81" dur=".7s" begin="0.73s" fill="freeze"/></rect></g>
</svg>